<svg width="32" height="14" viewBox="0 0 32 14" fill="none" xmlns="http://www.w3.org/2000/svg">
<path d="M5.84698 1.69388C5.47187 2.13761 4.87169 2.48783 4.27186 2.4377C4.19684 1.83752 4.49053 1.20001 4.83435 0.806404C5.20947 0.350224 5.86583 0.024889 6.39703 0C6.45961 0.62507 6.21569 1.23769 5.84698 1.69388ZM6.39063 2.55681C5.52165 2.50668 4.77782 3.05068 4.36537 3.05068C3.94653 3.05068 3.31541 2.5817 2.62777 2.5945C1.73389 2.60695 0.902601 3.11326 0.446421 3.91966C-0.491184 5.53247 0.202509 7.92004 1.10882 9.23276C1.55256 9.88272 2.08412 10.5953 2.78385 10.5704C3.44626 10.5455 3.70902 10.1391 4.50902 10.1391C5.31542 10.1391 5.54654 10.5704 6.24663 10.5579C6.97161 10.5455 7.42814 9.90796 7.87188 9.25765C8.37819 8.52022 8.58442 7.80128 8.59686 7.76359C8.58442 7.75115 7.19668 7.21995 7.18423 5.61958C7.17179 4.28198 8.27828 3.64446 8.32806 3.60677C7.70335 2.68161 6.72805 2.5817 6.39063 2.55681ZM11.41 0.743826V10.4886H12.9226V7.15701H15.0164C16.9293 7.15701 18.273 5.8443 18.273 3.9442C18.273 2.0441 16.9542 0.743826 15.0662 0.743826H11.41ZM12.9226 2.01921H14.6666C15.9793 2.01921 16.7292 2.7193 16.7292 3.9506C16.7292 5.18189 15.9789 5.88838 14.6602 5.88838H12.9226V2.01921ZM21.036 10.564C21.9861 10.564 22.8675 10.0825 23.2675 9.32022H23.2988V10.4889H24.699V5.63843C24.699 4.23184 23.574 3.32553 21.8424 3.32553C20.236 3.32553 19.0485 4.24429 19.0047 5.50687H20.3672C20.4796 4.90669 21.036 4.51309 21.7987 4.51309C22.7239 4.51309 23.2426 4.94438 23.2426 5.73834V6.27594L21.355 6.3883C19.5985 6.49461 18.6485 7.21355 18.6485 8.46369C18.6485 9.72627 19.6298 10.564 21.036 10.564ZM21.4424 9.40734C20.636 9.40734 20.1237 9.01978 20.1237 8.426C20.1237 7.81337 20.6175 7.4571 21.5612 7.40093L23.2426 7.29461V7.84466C23.2426 8.75738 22.4675 9.40734 21.4424 9.40734ZM26.5681 13.1393C28.0434 13.1393 28.737 12.5768 29.3436 10.8701L32 3.41939H30.4622L28.6809 9.17622H28.6496L26.8682 3.41939H25.2867L27.8496 10.5138L27.712 10.9451C27.4809 11.6765 27.1058 11.9577 26.4369 11.9577C26.3182 11.9577 26.0871 11.9453 25.9932 11.9329V13.1016C26.0807 13.1268 26.4554 13.1393 26.5681 13.1393Z" fill="white"/>
</svg>
