<svg width="35" height="15" viewBox="0 0 35 15" fill="none" xmlns="http://www.w3.org/2000/svg">
<path d="M16.5345 7.3086V11.3267H15.2383V1.38916H18.6083C19.4293 1.38916 20.2069 1.69151 20.812 2.25318C21.417 2.77182 21.7194 3.5494 21.7194 4.37039C21.7194 5.19139 21.417 5.92594 20.812 6.48761C20.2069 7.04928 19.4727 7.35163 18.6083 7.35163L16.5345 7.3086ZM16.5345 2.59894V6.05541H18.6947C19.17 6.05541 19.6452 5.88253 19.9476 5.53676C20.6387 4.88865 20.6387 3.80834 19.9906 3.16023L19.9476 3.1172C19.6018 2.77144 19.17 2.55553 18.6947 2.59856L16.5345 2.59894Z" fill="white"/>
<path d="M24.6996 4.32715C25.6501 4.32715 26.3846 4.58647 26.9463 5.10473C27.508 5.62337 27.7673 6.31451 27.7673 7.17853V11.3265H26.5575V10.3761H26.5145C25.9958 11.1536 25.2617 11.5428 24.3973 11.5428C23.6627 11.5428 23.0146 11.3269 22.4963 10.8947C22.0211 10.4625 21.7188 9.8578 21.7188 9.20969C21.7188 8.51855 21.9781 7.95688 22.4963 7.52468C23.015 7.09247 23.7491 6.91959 24.6135 6.91959C25.3911 6.91959 25.9962 7.04906 26.4714 7.3518V7.04945C26.4714 6.61724 26.2986 6.18543 25.9528 5.92611C25.607 5.62376 25.1752 5.45087 24.7 5.45087C23.9654 5.45087 23.4038 5.75322 23.015 6.35831L21.8916 5.66717C22.5824 4.75935 23.4898 4.32715 24.6996 4.32715ZM23.0576 9.25272C23.0576 9.59848 23.2305 9.90083 23.4898 10.0737C23.7922 10.2896 24.1379 10.4195 24.4837 10.4195C25.0023 10.4195 25.5206 10.2036 25.9094 9.81439C26.3416 9.4256 26.5575 8.95037 26.5575 8.43173C26.1687 8.12938 25.607 7.95649 24.8725 7.95649C24.3538 7.95649 23.922 8.08596 23.5763 8.34528C23.2305 8.56158 23.0576 8.86393 23.0576 9.25272Z" fill="white"/>
<path d="M34.7678 4.54297L30.4904 14.3511H29.1942L30.7927 10.9376L27.9844 4.58638H29.367L31.3978 9.46892H31.4408L33.4282 4.58638H34.7678V4.54297Z" fill="white"/>
<path d="M11.3919 6.44459C11.3919 6.0558 11.3489 5.66701 11.3055 5.27783H5.9043V7.48149H8.97197C8.8425 8.17263 8.45333 8.82074 7.84863 9.20991V10.6356H9.70652C10.7868 9.64173 11.3919 8.17263 11.3919 6.44459Z" fill="white"/>
<path d="M5.9047 12.0182C7.46025 12.0182 8.75647 11.4996 9.70693 10.6356L7.84904 9.20988C7.33039 9.55565 6.68228 9.77156 5.9047 9.77156C4.4356 9.77156 3.13938 8.77768 2.70756 7.39502H0.806641V8.86412C1.80013 10.8085 3.74446 12.0182 5.9047 12.0182Z" fill="white"/>
<path d="M2.70807 7.39493C2.44875 6.70379 2.44875 5.92582 2.70807 5.19127V3.72217H0.80715C-0.0138417 5.32074 -0.0138417 7.22205 0.80715 8.86365L2.70807 7.39493Z" fill="white"/>
<path d="M5.90465 2.85826C6.72564 2.85826 7.50322 3.16061 8.1083 3.72228L9.75029 2.0803C8.71338 1.12984 7.33072 0.568165 5.94806 0.611193C3.78782 0.611193 1.80007 1.82097 0.849609 3.76531L2.75053 5.23441C3.1397 3.85213 4.43593 2.85826 5.90465 2.85826Z" fill="white"/>
</svg>
