<svg width="46" height="17" viewBox="0 0 46 17" fill="none" xmlns="http://www.w3.org/2000/svg">
<path d="M7.02139 0.0048275C5.54157 0.0832558 4.5282 0.25456 3.64691 0.574465C3.36003 0.677659 2.85644 0.9212 2.61496 1.0698C1.95658 1.48052 1.41171 2.03777 1.0175 2.70235C0.520103 3.54854 0.212582 4.64448 0.0763643 6.06031C0.0185751 6.66091 0 7.1645 0 8.02102C0 8.87547 0.0185751 9.377 0.0763643 9.98172C0.282754 12.1323 0.889541 13.5647 1.99166 14.514C3.00297 15.3829 4.29291 15.8226 6.36094 16.0001C6.87692 16.0434 8.60853 16.062 9.21944 16.031C11.7477 15.8969 13.2647 15.3829 14.3606 14.287C14.953 13.6947 15.3307 13.0528 15.6258 12.1426C15.987 11.024 16.1438 9.59577 16.117 7.69079C16.1046 6.82808 16.086 6.49992 16.0179 5.86424C15.7723 3.5568 15.019 2.07286 13.6362 1.15855C12.662 0.514611 11.4732 0.184387 9.60126 0.0316582C9.33915 0.0110188 7.31033 -0.00961876 7.02139 0.0048275ZM9.05433 1.51973C9.8221 1.55688 10.3794 1.6188 10.9407 1.72818C13.4442 2.21733 14.3771 3.52584 14.5753 6.83427C14.6042 7.31104 14.6042 8.72893 14.5773 9.19744C14.4659 11.0054 14.146 12.155 13.533 12.9434C12.6311 14.1033 10.8809 14.5822 7.73343 14.5367C6.90581 14.5244 6.60654 14.5079 6.05136 14.448C4.83572 14.3159 3.85743 14.0084 3.22381 13.5564C2.97614 13.3789 2.67481 13.0776 2.49732 12.8299C2.05152 12.2025 1.74812 11.2551 1.61603 10.0725C1.53554 9.36462 1.52109 9.04471 1.52109 8.02102C1.52109 6.99732 1.53554 6.67742 1.61603 5.9695C1.79766 4.34315 2.26616 3.25341 3.05664 2.61566C3.9049 1.93458 5.16181 1.60022 7.20714 1.51354C7.57245 1.49703 8.67044 1.50116 9.05433 1.51973Z" fill="white"/>
<path d="M5.5767 3.13145C5.29188 3.17686 5.00087 3.40389 4.86878 3.68045C4.80686 3.81254 4.80273 3.83318 4.80273 4.05815C4.80273 4.28311 4.80686 4.30169 4.87084 4.4379C4.95753 4.62159 5.0504 4.73511 5.19488 4.83004C5.40333 4.97039 5.65719 5.02818 5.87596 4.98897C6.22476 4.92498 6.51164 4.67525 6.63135 4.33471C6.66437 4.23564 6.67263 4.17579 6.66644 4.01687C6.66024 3.84763 6.64993 3.80016 6.5942 3.68045C6.46211 3.39976 6.1711 3.17686 5.87596 3.12939C5.73768 3.10669 5.73355 3.10669 5.5767 3.13145Z" fill="white"/>
<path d="M10.391 5.54632C9.90394 5.61649 9.42305 5.82495 9.07838 6.11389C8.98963 6.18613 8.91739 6.24598 8.91326 6.24598C8.90914 6.24598 8.92565 6.1366 8.94835 6.00244C8.97105 5.86829 8.98344 5.74445 8.97518 5.72382C8.9628 5.69079 8.90295 5.68873 8.23011 5.68873H7.49743L7.47473 5.76509C7.4479 5.86623 6.38086 11.8804 6.38086 11.9382C6.38086 11.963 6.39943 11.9919 6.42007 12.0043C6.48199 12.0373 7.80701 12.0332 7.85242 11.9981C7.87925 11.9795 7.95355 11.5956 8.19709 10.2293C8.39523 9.121 8.52938 8.41308 8.56859 8.28718C8.83277 7.4286 9.44369 6.94977 10.2672 6.94771C10.8409 6.94771 11.2042 7.18299 11.3156 7.6288C11.3796 7.88678 11.3611 8.02919 11.0061 10.0188C10.8244 11.0446 10.6738 11.9052 10.6738 11.932C10.6738 11.9609 10.6903 11.9919 10.713 12.0043C10.7749 12.0373 12.0999 12.0332 12.1453 11.9981C12.1722 11.9795 12.2547 11.5543 12.5086 10.1158C12.9296 7.75263 12.9069 7.90123 12.9069 7.54624C12.9048 7.06122 12.8182 6.70623 12.618 6.3822C12.3414 5.9364 11.8977 5.65571 11.3053 5.55458C11.1051 5.52155 10.6057 5.51536 10.391 5.54632Z" fill="white"/>
<path d="M4.73051 5.73462C4.72019 5.76145 4.47046 7.15252 4.17326 8.82635C3.87812 10.5002 3.63252 11.8871 3.62839 11.9077C3.6222 11.9284 3.63665 11.9635 3.65935 11.9862C3.6965 12.0233 3.73571 12.0254 4.38791 12.0254C4.9885 12.0254 5.08344 12.0213 5.11027 11.9924C5.12885 11.9759 5.14329 11.9552 5.14329 11.947C5.14329 11.9387 5.39096 10.5414 5.69229 8.84286C6.13603 6.34141 6.23716 5.74494 6.21652 5.72018C6.19382 5.69334 6.08237 5.68922 5.47145 5.68922H4.75115L4.73051 5.73462Z" fill="white"/>
<path d="M17.8321 3.2346C17.797 3.25318 17.7949 3.48433 17.7949 7.61833C17.7949 11.9112 17.7949 11.9814 17.8341 12.0041C17.861 12.0165 18.1231 12.0248 18.5482 12.0248C18.9734 12.0248 19.2355 12.0165 19.2624 12.0041C19.2995 11.9835 19.3016 11.9566 19.3016 11.6533C19.3016 11.4716 19.3057 11.323 19.3119 11.323C19.3181 11.323 19.38 11.3788 19.4522 11.4489C19.8341 11.8225 20.3108 12.0536 20.8805 12.1403C21.1488 12.1816 21.7968 12.1692 22.0259 12.1176C22.4449 12.0227 22.8288 11.8534 23.159 11.6182C23.2663 11.5397 23.4521 11.3808 23.5718 11.2611C24.0444 10.7905 24.3395 10.2436 24.4861 9.56871C24.5274 9.37677 24.5315 9.29421 24.5315 8.84635C24.5315 8.29941 24.5109 8.14462 24.387 7.74629C24.1001 6.84024 23.3344 6.02706 22.4593 5.70303C22.158 5.59158 21.9 5.54411 21.5182 5.52966C20.6452 5.4987 19.993 5.72573 19.4357 6.25202C19.3676 6.31807 19.3098 6.36967 19.3078 6.36967C19.3036 6.36967 19.3016 5.67 19.3016 4.81555C19.3016 3.635 19.2954 3.25524 19.2768 3.23667C19.2438 3.20364 17.8857 3.20158 17.8321 3.2346ZM21.6647 7.02805C22.2984 7.18903 22.8226 7.71946 22.9753 8.35514C23.0352 8.60074 23.0475 8.91446 23.0104 9.16832C22.9113 9.80193 22.5481 10.2952 21.9805 10.5573C21.6936 10.6915 21.5719 10.7142 21.1591 10.7121C20.8268 10.7121 20.7834 10.7059 20.6163 10.6564C20.0652 10.4871 19.6669 10.128 19.4481 9.6038C19.3552 9.37677 19.3181 9.16419 19.3181 8.85667C19.316 8.30767 19.4667 7.90934 19.8155 7.5399C20.0982 7.24063 20.4553 7.05282 20.8598 6.98884C21.0518 6.95994 21.4728 6.98058 21.6647 7.02805Z" fill="white"/>
<path d="M40.0781 3.24969C40.045 3.28477 40.043 3.61912 40.043 7.62309C40.043 11.7963 40.045 11.9593 40.0801 11.9903C40.1152 12.0213 40.1957 12.0254 40.8107 12.0254C41.4526 12.0254 41.5042 12.0233 41.5352 11.9882C41.5661 11.9532 41.5703 11.8231 41.5744 10.6446L41.5806 9.33819L42.7157 10.6137C43.3411 11.3154 43.8798 11.9201 43.9148 11.9573L43.9788 12.0254H44.8065C45.5412 12.0254 45.6361 12.0213 45.6671 11.9924C45.6857 11.9738 45.6981 11.9428 45.6939 11.9222C45.6898 11.9016 45.0933 11.2225 44.3668 10.4135C43.6403 9.60237 43.015 8.90684 42.9778 8.8635L42.9097 8.78713L44.2513 7.29699C44.9901 6.47969 45.5949 5.79241 45.5949 5.77384C45.5949 5.69128 45.5763 5.68922 44.6847 5.68922H43.824L42.7013 6.96264L41.5806 8.23607L41.5703 5.74288C41.562 3.55927 41.5558 3.24969 41.529 3.23317C41.5104 3.22079 41.2049 3.21254 40.8045 3.21254C40.1585 3.21254 40.109 3.2146 40.0781 3.24969Z" fill="white"/>
<path d="M27.8768 5.55501C27.1441 5.67472 26.494 6.05241 25.9924 6.64888C25.526 7.20407 25.2866 7.80053 25.2226 8.56211C25.1731 9.17096 25.2825 9.81077 25.526 10.3329C25.8211 10.9624 26.3908 11.5548 26.9955 11.8602C27.4475 12.0873 27.8293 12.1719 28.3928 12.1719C29.1874 12.1719 29.7838 11.9531 30.2771 11.4805L30.4463 11.3174V11.6373C30.4463 11.9201 30.4505 11.9614 30.4835 11.9903C30.5186 12.0212 30.5991 12.0253 31.2162 12.0253C31.8188 12.0253 31.9138 12.0212 31.9406 11.9923C31.9695 11.9634 31.9736 11.6497 31.9736 8.849C31.9736 6.45694 31.9674 5.73251 31.9489 5.71393C31.9303 5.69536 31.7363 5.68916 31.2059 5.68916C30.5186 5.68916 30.4876 5.69123 30.467 5.72838C30.4567 5.75108 30.4463 5.90175 30.4463 6.07305V6.37644L30.2854 6.22165C29.9407 5.89349 29.5547 5.69536 29.0388 5.58184C28.7808 5.52612 28.1451 5.51167 27.8768 5.55501ZM29.0842 7.0307C29.6868 7.17724 30.1945 7.66844 30.3741 8.27936C30.4505 8.53116 30.469 8.97283 30.4154 9.24939C30.2771 9.9924 29.7199 10.5538 28.983 10.6921C28.7622 10.7333 28.4155 10.7333 28.1946 10.6921C27.5073 10.562 26.9707 10.0564 26.7912 9.37323C26.7355 9.16064 26.7169 8.76644 26.7499 8.53735C26.8077 8.14933 26.9769 7.8026 27.2494 7.52604C27.5486 7.21645 27.8892 7.04927 28.3515 6.98117C28.4939 6.96053 28.9149 6.98942 29.0842 7.0307Z" fill="white"/>
<path d="M36.0295 5.553C35.5321 5.63556 35.1441 5.82131 34.8283 6.12883L34.6777 6.2733V6.00706C34.6777 5.82544 34.6694 5.7305 34.6529 5.71398C34.6343 5.69541 34.4403 5.68922 33.9099 5.68922C33.2226 5.68922 33.1917 5.69128 33.171 5.72843C33.1566 5.75526 33.1504 6.76657 33.1504 8.85111C33.1504 11.6085 33.1545 11.9387 33.1834 11.98C33.2144 12.0254 33.2144 12.0254 33.9099 12.0254C34.3124 12.0254 34.6178 12.0171 34.6364 12.0048C34.6632 11.9882 34.6694 11.7468 34.6777 10.1018L34.6901 8.2175L34.7458 8.01317C34.8283 7.70565 34.9274 7.52402 35.1111 7.33827C35.3629 7.08441 35.6291 6.97503 36.0605 6.95439C36.5001 6.93375 36.8303 7.03901 37.0821 7.27842C37.2225 7.41464 37.3091 7.55911 37.3855 7.78408L37.433 7.92855L37.4392 9.94085C37.4433 11.7633 37.4474 11.9552 37.4784 11.9882C37.5093 12.0233 37.5651 12.0254 38.209 12.0254C38.8241 12.0254 38.9087 12.0213 38.9396 11.9924C38.9706 11.9614 38.9727 11.7715 38.9644 9.83972C38.9582 7.98634 38.952 7.70152 38.9231 7.55705C38.8055 6.97916 38.5908 6.53954 38.2647 6.20726C37.9552 5.89148 37.5898 5.69335 37.1131 5.58189C36.884 5.5303 36.2731 5.51172 36.0295 5.553Z" fill="white"/>
</svg>
