<svg width="25" height="20" viewBox="0 0 25 20" fill="none" xmlns="http://www.w3.org/2000/svg">
<g clip-path="url(#clip0_600_1475)">
<path d="M4.53122 19.3362V18.0501C4.53122 17.5582 4.23098 17.236 3.71557 17.236C3.45786 17.236 3.17764 17.3209 2.98498 17.6006C2.83486 17.3659 2.61969 17.236 2.29693 17.236C2.08176 17.236 1.86659 17.3009 1.69645 17.5357V17.2785H1.24609V19.3362H1.69645V18.1999C1.69645 17.8353 1.88911 17.663 2.18935 17.663C2.48959 17.663 2.63971 17.8553 2.63971 18.1999V19.3362H3.09007V18.1999C3.09007 17.8353 3.30524 17.663 3.58296 17.663C3.8832 17.663 4.03332 17.8553 4.03332 18.1999V19.3362H4.53122ZM11.2116 17.2785H10.481V16.6566H10.0306V17.2785H9.6228V17.6855H10.0306V18.6295C10.0306 19.1015 10.2233 19.3787 10.7387 19.3787C10.9313 19.3787 11.1465 19.3137 11.2966 19.2288L11.1665 18.8417C11.0364 18.9266 10.8863 18.9491 10.7787 18.9491C10.5635 18.9491 10.4785 18.8193 10.4785 18.607V17.6855H11.2091V17.2785H11.2116ZM15.0346 17.2335C14.7769 17.2335 14.6043 17.3634 14.4967 17.5332V17.276H14.0463V19.3337H14.4967V18.175C14.4967 17.8329 14.6468 17.6381 14.927 17.6381C15.0121 17.6381 15.1197 17.6605 15.2073 17.6805L15.3374 17.251C15.2473 17.2335 15.1197 17.2335 15.0346 17.2335ZM9.2575 17.4483C9.04233 17.2984 8.74209 17.2335 8.41933 17.2335C7.90392 17.2335 7.56115 17.4907 7.56115 17.8978C7.56115 18.2399 7.81885 18.4347 8.26921 18.4971L8.48439 18.5196C8.71957 18.562 8.84968 18.627 8.84968 18.7344C8.84968 18.8842 8.67704 18.9916 8.3768 18.9916C8.07656 18.9916 7.83887 18.8842 7.68875 18.7768L7.47358 19.1189C7.70876 19.2912 8.03152 19.3762 8.35428 19.3762C8.95476 19.3762 9.30004 19.0965 9.30004 18.7119C9.30004 18.3473 9.01981 18.155 8.59197 18.0901L8.3768 18.0676C8.18414 18.0451 8.03403 18.0027 8.03403 17.8753C8.03403 17.7255 8.18415 17.6406 8.42184 17.6406C8.67954 17.6406 8.93725 17.7479 9.06735 17.8129L9.2575 17.4483ZM21.2396 17.2335C20.9819 17.2335 20.8092 17.3634 20.7017 17.5332V17.276H20.2513V19.3337H20.7017V18.175C20.7017 17.8329 20.8518 17.6381 21.132 17.6381C21.2171 17.6381 21.3247 17.6605 21.4122 17.6805L21.5423 17.256C21.4548 17.2335 21.3272 17.2335 21.2396 17.2335ZM15.485 18.3073C15.485 18.9291 15.9153 19.3787 16.5809 19.3787C16.8811 19.3787 17.0963 19.3137 17.3114 19.1439L17.0963 18.7793C16.9236 18.9092 16.7535 18.9716 16.5583 18.9716C16.1931 18.9716 15.9353 18.7144 15.9353 18.3073C15.9353 17.9203 16.1931 17.663 16.5583 17.6431C16.751 17.6431 16.9236 17.708 17.0963 17.8353L17.3114 17.4707C17.0963 17.2984 16.8811 17.236 16.5809 17.236C15.9153 17.2335 15.485 17.6855 15.485 18.3073ZM19.6508 18.3073V17.2785H19.2005V17.5357C19.0503 17.3434 18.8352 17.236 18.5549 17.236C17.9745 17.236 17.5241 17.6855 17.5241 18.3073C17.5241 18.9291 17.9745 19.3787 18.5549 19.3787C18.8552 19.3787 19.0704 19.2713 19.2005 19.079V19.3362H19.6508V18.3073ZM17.997 18.3073C17.997 17.9427 18.2322 17.6431 18.62 17.6431C18.9853 17.6431 19.243 17.9228 19.243 18.3073C19.243 18.6719 18.9853 18.9716 18.62 18.9716C18.2347 18.9491 17.997 18.6694 17.997 18.3073ZM12.6077 17.2335C12.0072 17.2335 11.5769 17.663 11.5769 18.3048C11.5769 18.9491 12.0072 19.3762 12.6302 19.3762C12.9304 19.3762 13.2307 19.2912 13.4684 19.0965L13.2532 18.7743C13.0806 18.9042 12.8654 18.9891 12.6527 18.9891C12.3725 18.9891 12.0948 18.8592 12.0297 18.4971H13.5534C13.5534 18.4322 13.5534 18.3897 13.5534 18.3248C13.5735 17.663 13.1856 17.2335 12.6077 17.2335ZM12.6077 17.6206C12.8879 17.6206 13.0806 17.7929 13.1231 18.1125H12.0497C12.0923 17.8353 12.2849 17.6206 12.6077 17.6206ZM23.7966 18.3073V16.4644H23.3463V17.5357C23.1962 17.3434 22.981 17.236 22.7008 17.236C22.1203 17.236 21.6699 17.6855 21.6699 18.3073C21.6699 18.9291 22.1203 19.3787 22.7008 19.3787C23.001 19.3787 23.2162 19.2713 23.3463 19.079V19.3362H23.7966V18.3073ZM22.1428 18.3073C22.1428 17.9427 22.378 17.6431 22.7658 17.6431C23.1311 17.6431 23.3888 17.9228 23.3888 18.3073C23.3888 18.6719 23.1311 18.9716 22.7658 18.9716C22.378 18.9491 22.1428 18.6694 22.1428 18.3073ZM7.06575 18.3073V17.2785H6.61539V17.5357C6.46527 17.3434 6.2501 17.236 5.96987 17.236C5.38941 17.236 4.93905 17.6855 4.93905 18.3073C4.93905 18.9291 5.38941 19.3787 5.96987 19.3787C6.27011 19.3787 6.48529 19.2713 6.61539 19.079V19.3362H7.06575V18.3073ZM5.39191 18.3073C5.39191 17.9427 5.6271 17.6431 6.01491 17.6431C6.3802 17.6431 6.63791 17.9228 6.63791 18.3073C6.63791 18.6719 6.3802 18.9716 6.01491 18.9716C5.6271 18.9491 5.39191 18.6694 5.39191 18.3073Z" fill="white"/>
<path d="M9.55765 7.71652C9.55765 5.25173 10.7186 3.06413 12.5 1.65069C11.189 0.621816 9.53513 0 7.73118 0C3.45777 0 0 3.45121 0 7.71652C0 11.9818 3.45777 15.433 7.73118 15.433C9.53513 15.433 11.189 14.8112 12.5 13.7823C10.7161 12.3889 9.55765 10.1813 9.55765 7.71652Z" fill="white"/>
<path d="M25 7.71652C25 11.9818 21.5422 15.433 17.2688 15.433C15.4649 15.433 13.811 14.8112 12.5 13.7823C14.3039 12.3664 15.4424 10.1813 15.4424 7.71652C15.4424 5.25173 14.2814 3.06413 12.5 1.65069C13.8085 0.621816 15.4624 0 17.2663 0C21.5422 0 25 3.47368 25 7.71652Z" fill="white"/>
</g>
<defs>
<clipPath id="clip0_600_1475">
<rect width="25" height="19.3787" fill="white"/>
</clipPath>
</defs>
</svg>
