<svg width="48" height="48" viewBox="0 0 48 48" fill="none" xmlns="http://www.w3.org/2000/svg">
<path d="M24.3602 20.2202C24.2685 20.2202 24.2033 20.31 24.2311 20.3973L25.5012 24.3391L24.3525 26.1967C24.2969 26.2869 24.3617 26.4036 24.4677 26.4036H25.8252C25.9039 26.4036 25.9773 26.3623 26.0181 26.2946L29.5658 20.4261C29.6201 20.3359 29.5553 20.2207 29.4497 20.2207H28.0922C28.0125 20.2207 27.9386 20.2629 27.8983 20.3316L26.502 22.6893L25.793 20.3493C25.77 20.273 25.6994 20.2212 25.6202 20.2212L24.3602 20.2202Z" fill="white"/>
<path d="M41.8138 18.1636C41.725 18.1636 41.6491 18.2284 41.6352 18.3162L40.6056 24.8423C40.5912 24.9335 40.6531 25.0189 40.7443 25.0333C40.753 25.0348 40.7616 25.0352 40.7707 25.0352H41.9914C42.0802 25.0352 42.156 24.9704 42.1699 24.8826L43.199 18.356C43.2134 18.2648 43.151 18.1794 43.0598 18.165C43.0512 18.1636 43.043 18.1631 43.0344 18.1631L41.8138 18.1636Z" fill="white"/>
<path d="M7.91814 18.4985C7.91574 18.6181 7.90518 18.7371 7.88694 18.8547C7.63926 20.4339 6.28326 21.5998 4.68582 21.5998H3.09846C2.93622 21.5998 2.7975 21.7179 2.77254 21.8787L2.2743 25.0361L1.9623 27.0171C1.93926 27.163 2.03862 27.3003 2.18454 27.3238C2.19846 27.3262 2.21286 27.3272 2.22678 27.3272H3.94998C4.11222 27.3272 4.25046 27.2091 4.2759 27.0483L4.72998 24.1697C4.75542 24.0094 4.89366 23.8909 5.05638 23.8909H6.07062C7.66806 23.8909 9.02406 22.7254 9.27174 21.1457C9.44742 20.0245 8.88294 19.0045 7.91814 18.4985Z" fill="white"/>
<path d="M1.68136 15.8735C1.51912 15.8735 1.3804 15.9916 1.35544 16.1519L0.00328051 24.7257C-0.0221595 24.8884 0.103601 25.0358 0.26824 25.0358H2.2732L2.77096 21.8783L3.31288 18.4425C3.33832 18.2822 3.47656 18.1641 3.6388 18.1636H6.51112C7.03384 18.1636 7.51048 18.2855 7.91656 18.4982C7.9444 17.0601 6.75784 15.873 5.12632 15.873L1.68136 15.8735Z" fill="white"/>
<path d="M32.8052 18.1636H30.4988C30.41 18.1636 30.3342 18.2279 30.3202 18.3162L29.2911 24.8428C29.2767 24.934 29.3391 25.0194 29.4303 25.0338C29.439 25.0353 29.4476 25.0357 29.4562 25.0357H30.6769C30.7657 25.0357 30.8415 24.9709 30.8554 24.8831L31.1579 22.9665C31.1718 22.8786 31.2471 22.8138 31.3364 22.8138H32.4462C33.7426 22.8138 34.8433 21.8677 35.0439 20.5861C35.2465 19.2935 34.2366 18.1665 32.8052 18.1636ZM33.4671 20.529C33.3918 21.0071 33.0222 21.3589 32.3151 21.3589H31.4113L31.6854 19.6209H32.5734C33.3044 19.6209 33.5425 20.0519 33.4671 20.529Z" fill="white"/>
<path d="M16.1197 18.1636H13.8133C13.7245 18.1636 13.6486 18.2279 13.6347 18.3162L12.6056 24.8428C12.5912 24.934 12.6536 25.0194 12.7448 25.0338C12.7534 25.0353 12.7621 25.0357 12.7707 25.0357H13.9913C14.0801 25.0357 14.156 24.9709 14.1699 24.8831L14.4723 22.9665C14.4862 22.8786 14.5616 22.8138 14.6509 22.8138H15.7606C17.0571 22.8138 18.1577 21.8677 18.3589 20.5861C18.5605 19.2935 17.551 18.1665 16.1197 18.1636ZM16.7811 20.529C16.7057 21.0071 16.3361 21.3589 15.6291 21.3589H14.7257L14.9998 19.6209H15.8878C16.6184 19.6209 16.8565 20.0519 16.7811 20.529Z" fill="white"/>
<path d="M40.3581 20.2229C40.3495 20.2214 40.3408 20.221 40.3317 20.221H39.173C39.0842 20.221 39.0083 20.2858 38.9949 20.3736L38.957 20.6141C38.957 20.6141 38.4511 20.0616 37.5261 20.065C37.2179 20.0659 36.8632 20.1293 36.4653 20.2949C35.5523 20.6755 35.1136 21.4622 34.9274 22.0358C34.9274 22.0358 34.3351 23.7854 35.6743 24.7469C35.6743 24.7469 36.916 25.6723 38.3143 24.6898L38.2903 24.8434C38.2759 24.9346 38.3383 25.02 38.4295 25.0344C38.4381 25.0358 38.4467 25.0363 38.4554 25.0363H39.6141C39.7029 25.0363 39.7787 24.9715 39.7927 24.8837L40.4978 20.4144C40.5112 20.3227 40.4493 20.2373 40.3581 20.2229ZM38.6291 22.691C38.5279 23.3318 38.0023 23.8042 37.3283 23.8042C37.1954 23.8042 37.0739 23.7859 36.9645 23.7509C36.4648 23.5906 36.1797 23.1101 36.2613 22.5898C36.3626 21.949 36.8896 21.4766 37.564 21.4766C37.697 21.4766 37.8189 21.4949 37.9279 21.5299C38.428 21.6902 38.7112 22.1702 38.6291 22.691Z" fill="white"/>
<path d="M23.6728 20.2229C23.6641 20.2214 23.6555 20.221 23.6468 20.221H22.4881C22.3993 20.221 22.3235 20.2858 22.3096 20.3736L22.2716 20.6141C22.2716 20.6141 21.7657 20.0616 20.8408 20.065C20.5326 20.0659 20.1779 20.1293 19.78 20.2949C18.867 20.6755 18.4283 21.4622 18.242 22.0358C18.242 22.0358 17.6492 23.7854 18.9884 24.7469C18.9884 24.7469 20.2307 25.6723 21.6284 24.6898L21.6044 24.8434C21.59 24.9346 21.6524 25.02 21.7436 25.0344C21.7523 25.0358 21.7609 25.0363 21.7691 25.0363H22.9278C23.0166 25.0363 23.0924 24.9715 23.1064 24.8837L23.811 20.4144C23.8264 20.3227 23.764 20.2373 23.6728 20.2229ZM21.9448 22.691C21.8435 23.3318 21.3179 23.8042 20.644 23.8042C20.511 23.8042 20.3896 23.7859 20.2801 23.7509C19.7804 23.5906 19.4953 23.1101 19.5769 22.5898C19.6782 21.949 20.2052 21.4766 20.8796 21.4766C21.0126 21.4766 21.1345 21.4949 21.2435 21.5299C21.7432 21.6902 22.0268 22.1702 21.9448 22.691Z" fill="white"/>
</svg>
