<svg width="59" height="14" viewBox="0 0 59 14" fill="none" xmlns="http://www.w3.org/2000/svg">
<mask id="mask0_600_1432" style="mask-type:luminance" maskUnits="userSpaceOnUse" x="0" y="0" width="59" height="14">
<path d="M59 0H0V13.6458H59V0Z" fill="white"/>
</mask>
<g mask="url(#mask0_600_1432)">
<path d="M2.34777 5.31641H0V13.637H2.34777V5.31641Z" fill="white"/>
<path d="M8.32063 5.31641C8.32063 6.10799 8.01479 6.86359 7.45708 7.4303C6.89938 7.997 6.13478 8.31183 5.3342 8.32083C3.91294 8.32982 2.55466 8.89652 1.55618 9.895C0.557707 10.8935 0 12.2428 0 13.646H2.34777C2.34777 12.8544 2.65361 12.0988 3.22031 11.5321C3.78701 10.9654 4.54261 10.6506 5.34319 10.6416C6.76445 10.6326 8.12273 10.0659 9.12121 9.06744C10.1197 8.06896 10.6774 6.71967 10.6774 5.31641C10.6684 5.31641 8.32063 5.31641 8.32063 5.31641Z" fill="white"/>
<path d="M5.3342 -0.00927734C3.91294 -0.000282069 2.55466 0.56642 1.55618 1.5649C0.557707 2.56337 0 3.91266 0 5.31592H2.34777C2.34777 4.52434 2.65361 3.76874 3.21131 3.20204C3.76902 2.63533 4.53362 2.3205 5.3342 2.3115C6.13478 2.3205 6.89038 2.64433 7.45708 3.20204C8.01479 3.75974 8.32962 4.52434 8.32063 5.31592H10.6684C10.6684 3.91266 10.1107 2.56337 9.11221 1.5649C8.11374 0.56642 6.75545 -0.000282069 5.3342 -0.00927734Z" fill="white"/>
<path d="M40.901 4.6684L40.0464 5.70286C39.6776 5.33405 39.1739 5.11817 38.6521 5.11817C38.2114 5.11817 37.9865 5.27108 37.9865 5.55893C37.9865 5.79281 38.1484 5.91874 38.6342 6.10765L39.2368 6.35951C40.4422 6.84526 40.9909 7.331 40.9909 8.23952C40.9999 8.51838 40.9459 8.79723 40.829 9.0491C40.7121 9.30097 40.5232 9.51685 40.2983 9.68776C39.7945 10.0566 39.1829 10.2365 38.5622 10.2095C37.4558 10.2095 36.6012 9.8137 35.9805 9.01312L36.8351 7.98766C37.3748 8.54536 37.9685 8.82422 38.5892 8.82422C39.0389 8.82422 39.3808 8.65331 39.3808 8.31149C39.3808 8.05062 39.2009 7.95168 38.7331 7.75378L38.0675 7.47493C36.9251 7.01617 36.3673 6.50344 36.3673 5.59491C36.3673 4.43452 37.3029 3.74189 38.6611 3.74189C39.5877 3.73289 40.3253 4.04773 40.901 4.6684ZM28.5954 3.93079H27.0303V4.59644C26.1667 3.535 24.0258 3.43605 22.8564 4.69539C21.741 5.89176 21.6871 8.06861 22.8564 9.32795C24.0258 10.5873 26.1757 10.4883 27.0392 9.41791V10.0836H28.6044L28.5954 3.93079ZM25.3481 8.69828C23.1983 8.69828 23.1983 5.31606 25.3481 5.31606C27.444 5.31606 27.453 8.69828 25.3481 8.69828ZM14.6348 12.0085H16.1999V9.4269C17.0635 10.4883 19.2134 10.5873 20.3827 9.33695C21.5521 8.07761 21.4982 5.90975 20.3827 4.70438C19.2134 3.44504 17.0635 3.54399 16.1999 4.61443V3.94878H14.6438L14.6348 12.0085ZM17.8821 5.31606C20.0319 5.31606 20.0319 8.69828 17.8821 8.69828C15.7862 8.70728 15.7952 5.31606 17.8821 5.31606ZM58.9995 3.9038H57.4343V4.56945C56.5707 3.50801 54.4209 3.40906 53.2515 4.6684C52.1361 5.87377 52.0821 8.04163 53.2515 9.30097C54.4209 10.5603 56.5707 10.4614 57.4343 9.39092V10.0566H58.9995V3.9038ZM55.7522 8.6713C53.6023 8.6713 53.6023 5.28908 55.7522 5.28908C57.8391 5.28008 57.8481 8.6713 55.7522 8.6713ZM34.2984 3.88581L32.6703 7.93368L31.1411 3.88581H29.342L31.7258 9.69676C31.6538 10.1105 31.312 10.5693 30.2056 10.5873V12.0445C31.6448 12.1435 32.7243 11.4149 33.228 10.2635L36.0705 3.88581C36.0885 3.88581 34.2984 3.88581 34.2984 3.88581ZM51.9022 5.41501V3.80485C51.7313 3.77787 51.5514 3.76887 51.3805 3.76887C51.0027 3.75988 50.6339 3.82284 50.283 3.95777C49.9322 4.0927 49.6174 4.29959 49.3475 4.55146C49.0777 4.82132 48.8618 5.15415 48.7179 5.51396C48.5739 5.87377 48.511 6.26056 48.529 6.63837V10.0926H50.2291V6.55741C50.2111 6.24257 50.328 5.93673 50.5529 5.71185C50.6608 5.60391 50.7958 5.51396 50.9397 5.45099C51.0836 5.38802 51.2365 5.36104 51.3984 5.36104C51.5604 5.37003 51.7313 5.38802 51.9022 5.41501ZM44.7689 3.74189C44.1213 3.74189 43.4916 3.93079 42.9519 4.2906C42.4122 4.65041 41.9984 5.15415 41.7465 5.74783C41.5036 6.34152 41.4407 6.98918 41.5666 7.61885C41.6925 8.24852 42.0074 8.82422 42.4751 9.27398C43.8334 10.5693 46.1722 10.4164 47.3686 9.4359L46.7209 8.23952C45.8304 8.92316 43.6625 9.15704 43.2127 7.5289H47.6654C47.7104 6.90822 47.8183 6.01769 47.3416 5.17213C46.559 3.75088 45.0928 3.74189 44.7689 3.74189ZM44.706 5.10017C45.4256 5.10017 45.9923 5.55893 46.0463 6.26956H43.2307C43.4556 5.55893 44.0133 5.10017 44.706 5.10017Z" fill="white"/>
</g>
</svg>
