<svg width="30" height="10" viewBox="0 0 30 10" fill="none" xmlns="http://www.w3.org/2000/svg">
<path d="M0 0.304857C0.403004 0.0975212 0.863675 0.181189 1.29635 0.173189C2.28736 0.199189 3.2807 0.149189 4.27171 0.193189C4.71838 0.191189 5.10139 0.562192 5.16305 0.994864C5.47406 2.50255 5.75939 4.01623 6.06439 5.52791C5.55972 3.75689 4.22771 2.31121 2.66203 1.39187C1.83469 0.895196 0.911343 0.606193 0 0.304857Z" fill="white"/>
<path d="M8.62284 0.177246C9.48251 0.187246 10.3399 0.183246 11.1975 0.177246C9.89318 3.29428 8.67684 6.44731 7.34449 9.55234C6.50682 9.52634 5.66914 9.53834 4.8318 9.53834C4.08979 6.82798 3.39778 4.10395 2.66211 1.39159C4.22779 2.31093 5.55981 3.75695 6.06448 5.52763C6.14014 5.87064 6.19415 6.22164 6.25981 6.56864C7.04115 4.43729 7.83316 2.30727 8.62284 0.177246Z" fill="white"/>
<path d="M12.1617 0.172852C12.9693 0.178852 13.777 0.178852 14.5847 0.172852C14.088 3.29588 13.5657 6.41492 13.081 9.53995C12.2773 9.54195 11.4736 9.54195 10.668 9.53995C11.1306 6.41325 11.6753 3.29822 12.1617 0.172852Z" fill="white"/>
<path d="M16.8815 0.761392C18.3295 -0.189951 20.2219 -0.16195 21.8236 0.364388C21.7499 1.0564 21.6342 1.7424 21.5146 2.42641C20.6629 2.01774 19.6699 1.83607 18.7445 2.07341C18.3079 2.17707 17.8769 2.71941 18.2399 3.12642C18.9859 3.89009 20.1602 4.06376 20.8622 4.89543C21.6759 5.69111 21.6459 7.03146 21.0916 7.9628C20.5052 8.94614 19.3766 9.46048 18.2775 9.60815C17.0352 9.73782 15.7409 9.66015 14.5762 9.17948C14.6998 8.48147 14.8035 7.77946 14.9292 7.08146C15.9362 7.60213 17.1049 7.86313 18.2279 7.6138C18.6089 7.48613 19.0015 7.17312 18.9679 6.72645C18.8422 6.19411 18.2859 5.96678 17.8532 5.72544C17.0135 5.31277 16.1102 4.8061 15.7332 3.89876C15.2642 2.75175 15.8842 1.40973 16.8815 0.761392Z" fill="white"/>
<path d="M28.0397 0.184841C27.2977 0.198841 26.552 0.15484 25.81 0.206841C25.3053 0.232841 24.9863 0.701513 24.8246 1.13218C23.658 3.94021 22.4773 6.74224 21.3086 9.54827C22.1543 9.54627 22.9996 9.54627 23.8453 9.54627C24.0226 9.0776 24.1943 8.60493 24.36 8.13225C25.393 8.13825 26.426 8.13625 27.461 8.13625C27.5567 8.60892 27.6563 9.0796 27.762 9.54827C28.508 9.54627 29.2537 9.54627 29.9997 9.54427C29.346 6.42524 28.7037 3.30387 28.0397 0.184841ZM25.064 6.20557C25.5146 5.04689 25.8836 3.85421 26.3883 2.71753C26.538 3.89421 26.831 5.04689 27.0723 6.20757C26.4023 6.20757 25.7343 6.20757 25.064 6.20557Z" fill="white"/>
</svg>
