<svg width="21" height="21" viewBox="0 0 21 21" fill="none" xmlns="http://www.w3.org/2000/svg">
<g clip-path="url(#clip0_600_1558)">
<path d="M10.5 21C16.299 21 21 16.299 21 10.5C21 4.70101 16.299 0 10.5 0C4.70101 0 0 4.70101 0 10.5C0 16.299 4.70101 21 10.5 21Z" fill="#F5081B"/>
<path d="M11.558 17.4028V11.0945H13.6755L13.9924 8.63614H11.558V7.06662C11.558 6.35481 11.7556 5.86982 12.7763 5.86982L14.0782 5.86936V3.67054C13.853 3.64058 13.0803 3.57373 12.1811 3.57373C10.3041 3.57373 9.01923 4.71935 9.01923 6.82343V8.63637H6.89648V11.0947H9.01923V17.403L11.558 17.4028Z" fill="#010002"/>
</g>
<defs>
<clipPath id="clip0_600_1558">
<rect width="21" height="21" fill="white"/>
</clipPath>
</defs>
</svg>
