<svg width="21" height="21" viewBox="0 0 21 21" fill="none" xmlns="http://www.w3.org/2000/svg">
<path d="M14.7634 7.27453C14.6723 7.03855 14.5328 6.82428 14.3538 6.6455C14.1749 6.46673 13.9605 6.32743 13.7244 6.23656C13.3993 6.11617 13.056 6.05253 12.7094 6.04844C12.133 6.02219 11.9602 6.01562 10.5 6.01562C9.03985 6.01562 8.86703 6.02219 8.29063 6.04844C7.94365 6.05241 7.59994 6.11604 7.27453 6.23656C7.03856 6.32767 6.82428 6.4672 6.64551 6.64617C6.46673 6.82513 6.32743 7.03955 6.23657 7.27562C6.11617 7.60068 6.05254 7.94401 6.04844 8.29062C6.02219 8.86703 6.01563 9.03984 6.01563 10.5C6.01563 11.9602 6.02219 12.133 6.04844 12.7094C6.05241 13.0564 6.11605 13.4001 6.23657 13.7255C6.32768 13.9614 6.46721 14.1757 6.64617 14.3545C6.82513 14.5333 7.03955 14.6726 7.27563 14.7634C7.60069 14.8838 7.94402 14.9475 8.29063 14.9516C8.86703 14.9778 9.03985 14.9833 10.5 14.9833C11.9602 14.9833 12.133 14.9778 12.7094 14.9505C13.0563 14.9468 13.4 14.8836 13.7255 14.7634C13.9614 14.6723 14.1757 14.5328 14.3545 14.3538C14.5333 14.1749 14.6726 13.9604 14.7634 13.7244C14.8838 13.3993 14.9475 13.056 14.9516 12.7094C14.9778 12.133 14.9833 11.9602 14.9833 10.5C14.9833 9.03984 14.9778 8.86703 14.9505 8.29062C14.9468 7.94371 14.8836 7.6 14.7634 7.27453ZM10.5 13.3087C9.94448 13.3087 9.40144 13.144 8.93955 12.8354C8.47765 12.5268 8.11764 12.0881 7.90506 11.5749C7.69247 11.0616 7.63685 10.4969 7.74522 9.95204C7.8536 9.40719 8.12111 8.90672 8.51392 8.51391C8.90673 8.1211 9.4072 7.85359 9.95204 7.74522C10.4969 7.63684 11.0616 7.69246 11.5749 7.90505C12.0881 8.11764 12.5268 8.47764 12.8354 8.93954C13.144 9.40144 13.3088 9.94448 13.3088 10.5C13.3088 11.2449 13.0128 11.9593 12.4861 12.4861C11.9593 13.0128 11.2449 13.3087 10.5 13.3087ZM13.4192 8.23703C13.2894 8.23703 13.1625 8.19854 13.0546 8.12643C12.9467 8.05432 12.8626 7.95183 12.8129 7.83192C12.7633 7.712 12.7503 7.58005 12.7756 7.45275C12.8009 7.32545 12.8634 7.20852 12.9552 7.11674C13.047 7.02496 13.1639 6.96246 13.2912 6.93714C13.4185 6.91182 13.5504 6.92481 13.6704 6.97448C13.7903 7.02415 13.8928 7.10827 13.9649 7.21619C14.037 7.32411 14.0755 7.45099 14.0755 7.58078C14.0755 7.75483 14.0063 7.92175 13.8833 8.04482C13.7602 8.16789 13.5933 8.23703 13.4192 8.23703ZM12.3233 10.5C12.3233 10.8606 12.2164 11.2131 12.016 11.513C11.8157 11.8128 11.5309 12.0465 11.1977 12.1845C10.8646 12.3225 10.498 12.3586 10.1443 12.2882C9.79062 12.2179 9.46574 12.0442 9.21075 11.7893C8.95576 11.5343 8.78211 11.2094 8.71176 10.8557C8.6414 10.502 8.67751 10.1354 8.81551 9.80226C8.95351 9.4691 9.18721 9.18434 9.48704 8.984C9.78688 8.78365 10.1394 8.67672 10.5 8.67672C10.9836 8.67672 11.4473 8.86881 11.7893 9.21074C12.1312 9.55268 12.3233 10.0164 12.3233 10.5ZM10.5 0C8.4233 0 6.39323 0.615814 4.66652 1.76957C2.9398 2.92332 1.59399 4.5632 0.799269 6.48182C0.00454946 8.40045 -0.203385 10.5116 0.201759 12.5484C0.606904 14.5852 1.60693 16.4562 3.07538 17.9246C4.54383 19.3931 6.41475 20.3931 8.45155 20.7982C10.4884 21.2034 12.5996 20.9955 14.5182 20.2007C16.4368 19.406 18.0767 18.0602 19.2304 16.3335C20.3842 14.6068 21 12.5767 21 10.5C21 7.71523 19.8938 5.04451 17.9246 3.07538C15.9555 1.10625 13.2848 0 10.5 0ZM15.9359 12.7542C15.9267 13.208 15.8405 13.657 15.6811 14.082C15.5406 14.4452 15.3258 14.7751 15.0505 15.0505C14.7751 15.3258 14.4452 15.5406 14.082 15.6811C13.6574 15.8404 13.2088 15.9265 12.7553 15.9359C12.1713 15.9622 11.9853 15.9687 10.5 15.9687C9.01469 15.9687 8.82875 15.9622 8.24469 15.9359C7.79123 15.9265 7.34264 15.8404 6.91797 15.6811C6.55476 15.5406 6.2249 15.3258 5.94954 15.0505C5.67417 14.7751 5.45937 14.4452 5.31891 14.082C5.15962 13.6574 5.07345 13.2088 5.06407 12.7553C5.03782 12.1712 5.03125 11.9853 5.03125 10.5C5.03125 9.01469 5.03782 8.82875 5.06407 8.24469C5.0731 7.79129 5.1589 7.3427 5.31782 6.91797C5.45827 6.55445 5.67318 6.22431 5.94875 5.94874C6.22432 5.67318 6.55445 5.45827 6.91797 5.31781C7.3427 5.15889 7.79129 5.07309 8.24469 5.06406C8.82875 5.03781 9.01469 5.03125 10.5 5.03125C11.9853 5.03125 12.1713 5.03781 12.7553 5.06406C13.2087 5.07309 13.6573 5.15889 14.082 5.31781C14.4454 5.4584 14.7753 5.67336 15.0506 5.94892C15.326 6.22448 15.5408 6.55455 15.6811 6.91797C15.8404 7.34263 15.9266 7.79122 15.9359 8.24469C15.9622 8.82875 15.9688 9.01469 15.9688 10.5C15.9688 11.9853 15.9622 12.1702 15.9359 12.7542Z" fill="#F5081B"/>
</svg>
