<svg width="17" height="19" viewBox="0 0 17 19" fill="none" xmlns="http://www.w3.org/2000/svg">
<path d="M16.4065 16.0042V15.9967L16.4057 15.9893L15.2875 4.83285C15.2875 4.83262 15.2875 4.8324 15.2875 4.83217C15.2585 4.51799 14.9684 4.30827 14.6554 4.30827H12.4442C12.3517 2.42425 10.5982 0.942773 8.4925 0.942773C6.38683 0.942773 4.6333 2.42425 4.54077 4.30827H2.32959C2.01869 4.30827 1.73173 4.51919 1.69774 4.83016L1.69773 4.83016L1.6976 4.8315L0.579263 15.9893L0.578516 15.9967V16.0042V16.0043V16.0044V16.0045V16.0046V16.0046V16.0047V16.0048V16.0049V16.005V16.0051V16.0051V16.0052V16.0053V16.0054V16.0055V16.0056V16.0056V16.0057V16.0058V16.0059V16.006V16.006V16.0061V16.0062V16.0063V16.0064V16.0065V16.0065V16.0066V16.0067V16.0068V16.0069V16.0069V16.007V16.0071V16.0072V16.0073V16.0073V16.0074V16.0075V16.0076V16.0077V16.0077V16.0078V16.0079V16.008V16.0081V16.0081V16.0082V16.0083V16.0084V16.0085V16.0085V16.0086V16.0087V16.0088V16.0089V16.0089V16.009V16.0091V16.0092V16.0093V16.0093V16.0094V16.0095V16.0096V16.0097V16.0097V16.0098V16.0099V16.01V16.01V16.0101V16.0102V16.0103V16.0104V16.0104V16.0105V16.0106V16.0107V16.0107V16.0108V16.0109V16.011V16.0111V16.0111V16.0112V16.0113V16.0114V16.0114V16.0115V16.0116V16.0117V16.0118V16.0118V16.0119V16.012V16.0121V16.0121V16.0122V16.0123V16.0124V16.0125V16.0125V16.0126V16.0127V16.0128V16.0128V16.0129V16.013V16.0131V16.0131V16.0132V16.0133V16.0134V16.0134V16.0135V16.0136V16.0137V16.0137V16.0138V16.0139V16.014V16.0141V16.0141V16.0142V16.0143V16.0144V16.0144V16.0145V16.0146V16.0147V16.0147V16.0148V16.0149V16.015V16.015V16.0151V16.0152V16.0153V16.0153V16.0154V16.0155V16.0156V16.0156V16.0157V16.0158V16.0159V16.0159V16.016V16.0161V16.0162V16.0162V16.0163V16.0164V16.0165V16.0165V16.0166V16.0167V16.0168V16.0168V16.0169V16.017V16.0171V16.0171V16.0172V16.0173V16.0174V16.0174V16.0175V16.0176V16.0176V16.0177V16.0178V16.0179V16.0179V16.018V16.0181V16.0182V16.0182V16.0183V16.0184V16.0185V16.0185V16.0186V16.0187V16.0188V16.0188V16.0189V16.019V16.0191V16.0191V16.0192V16.0193V16.0193V16.0194V16.0195V16.0196V16.0196V16.0197V16.0198V16.0199V16.0199V16.02V16.0201V16.0202V16.0202V16.0203V16.0204V16.0205V16.0205V16.0206V16.0207V16.0207V16.0208V16.0209V16.021V16.021V16.0211V16.0212V16.0213V16.0213V16.0214V16.0215V16.0216V16.0216V16.0217V16.0218V16.0218V16.0219V16.022V16.0221V16.0221V16.0222V16.0223V16.0224V16.0224V16.0225V16.0226V16.0226V16.0227V16.0228V16.0229V16.0229V16.023V16.0231V16.0232V16.0232V16.0233V16.0234V16.0234V16.0235V16.0236V16.0237V16.0237V16.0238V16.0239V16.024V16.024V16.0241V16.0242V16.0243V16.0243V16.0244V16.0245V16.0245V16.0246V16.0247V16.0248V16.0248V16.0249V16.025V16.0251V16.0251V16.0252V16.0253V16.0253V16.0254V16.0255V16.0256V16.0256V16.0257V16.0258V16.0259V16.0259V16.026V16.0261V16.0262V16.0262V16.0263V16.0264V16.0264V16.0265V16.0266V16.0267V16.0267V16.0268V16.0269V16.027V16.027V16.0271V16.0272V16.0273V16.0273V16.0274V16.0275V16.0275V16.0276V16.0277V16.0278V16.0278V16.0279V16.028V16.0281V16.0281V16.0282V16.0283V16.0284V16.0284V16.0285V16.0286V16.0287V16.0287V16.0288V16.0289V16.0289V16.029V16.0291V16.0292V16.0292V16.0293V16.0294V16.0295V16.0295V16.0296V16.0297V16.0298V16.0298V16.0299V16.03V16.0301V16.0301V16.0302V16.0303V16.0304V16.0304V16.0305V16.0306V16.0307V16.0307V16.0308V16.0309V16.0309V16.031V16.0311V16.0312V16.0312V16.0313V16.0314V16.0315V16.0315V16.0316V16.0317V16.0318V16.0318V16.0319V16.032V16.0321V16.0321V16.0322V16.0323V16.0324V16.0324V16.0325V16.0326V16.0327V16.0327V16.0328V16.0329V16.033V16.033V16.0331V16.0332V16.0333V16.0334V16.0334V16.0335V16.0336V16.0337V16.0337V16.0338V16.0339V16.034V16.034V16.0341V16.0342V16.0343V16.0343V16.0344V16.0345V16.0346V16.0346V16.0347V16.0348V16.0349V16.035V16.035V16.0351V16.0352V16.0353V16.0353V16.0354V16.0355V16.0356V16.0356V16.0357V16.0358V16.0359V16.0359V16.036V16.0361V16.0362V16.0363V16.0363V16.0364V16.0365V16.0366V16.0366V16.0367V16.0368V16.0369V16.037V16.037V16.0371V16.0372V16.0373V16.0373V16.0374V16.0375V16.0376V16.0377V16.0377V16.0378V16.0379V16.038V16.0381V16.0381V16.0382V16.0383V16.0384V16.0385V16.0385V16.0386V16.0387V16.0388V16.0388V16.0389V16.039V16.0391V16.0392V16.0392V16.0393V16.0394V16.0395V16.0396V16.0396V16.0397V16.0398V16.0399V16.04V16.04V16.0401V16.0402V16.0403V16.0404V16.0404V16.0405V16.0406V16.0407V16.0408V16.0409V16.0409V16.041V16.0411V16.0412V16.0413V16.0413V16.0414V16.0415V16.0416V16.0417V16.0417V16.0418V16.0419V16.042V16.0421V16.0422V16.0422V16.0423V16.0424V16.0425V16.0426V16.0427V16.0427V16.0428V16.0429V16.043V16.0431V16.0432V16.0432V16.0433V16.0434C0.578516 17.4012 1.97311 18.4478 3.60481 18.4478H13.3802C15.0119 18.4478 16.4065 17.4012 16.4065 16.0434V16.0433V16.0432V16.0432V16.0431V16.043V16.0429V16.0428V16.0427V16.0427V16.0426V16.0425V16.0424V16.0423V16.0422V16.0422V16.0421V16.042V16.0419V16.0418V16.0417V16.0417V16.0416V16.0415V16.0414V16.0413V16.0413V16.0412V16.0411V16.041V16.0409V16.0409V16.0408V16.0407V16.0406V16.0405V16.0404V16.0404V16.0403V16.0402V16.0401V16.04V16.04V16.0399V16.0398V16.0397V16.0396V16.0396V16.0395V16.0394V16.0393V16.0392V16.0392V16.0391V16.039V16.0389V16.0388V16.0388V16.0387V16.0386V16.0385V16.0385V16.0384V16.0383V16.0382V16.0381V16.0381V16.038V16.0379V16.0378V16.0377V16.0377V16.0376V16.0375V16.0374V16.0373V16.0373V16.0372V16.0371V16.037V16.037V16.0369V16.0368V16.0367V16.0366V16.0366V16.0365V16.0364V16.0363V16.0363V16.0362V16.0361V16.036V16.0359V16.0359V16.0358V16.0357V16.0356V16.0356V16.0355V16.0354V16.0353V16.0353V16.0352V16.0351V16.035V16.035V16.0349V16.0348V16.0347V16.0346V16.0346V16.0345V16.0344V16.0343V16.0343V16.0342V16.0341V16.034V16.034V16.0339V16.0338V16.0337V16.0337V16.0336V16.0335V16.0334V16.0334V16.0333V16.0332V16.0331V16.033V16.033V16.0329V16.0328V16.0327V16.0327V16.0326V16.0325V16.0324V16.0324V16.0323V16.0322V16.0321V16.0321V16.032V16.0319V16.0318V16.0318V16.0317V16.0316V16.0315V16.0315V16.0314V16.0313V16.0312V16.0312V16.0311V16.031V16.0309V16.0309V16.0308V16.0307V16.0307V16.0306V16.0305V16.0304V16.0304V16.0303V16.0302V16.0301V16.0301V16.03V16.0299V16.0298V16.0298V16.0297V16.0296V16.0295V16.0295V16.0294V16.0293V16.0292V16.0292V16.0291V16.029V16.0289V16.0289V16.0288V16.0287V16.0287V16.0286V16.0285V16.0284V16.0284V16.0283V16.0282V16.0281V16.0281V16.028V16.0279V16.0278V16.0278V16.0277V16.0276V16.0275V16.0275V16.0274V16.0273V16.0273V16.0272V16.0271V16.027V16.027V16.0269V16.0268V16.0267V16.0267V16.0266V16.0265V16.0264V16.0264V16.0263V16.0262V16.0262V16.0261V16.026V16.0259V16.0259V16.0258V16.0257V16.0256V16.0256V16.0255V16.0254V16.0253V16.0253V16.0252V16.0251V16.0251V16.025V16.0249V16.0248V16.0248V16.0247V16.0246V16.0245V16.0245V16.0244V16.0243V16.0243V16.0242V16.0241V16.024V16.024V16.0239V16.0238V16.0237V16.0237V16.0236V16.0235V16.0234V16.0234V16.0233V16.0232V16.0232V16.0231V16.023V16.0229V16.0229V16.0228V16.0227V16.0226V16.0226V16.0225V16.0224V16.0224V16.0223V16.0222V16.0221V16.0221V16.022V16.0219V16.0218V16.0218V16.0217V16.0216V16.0216V16.0215V16.0214V16.0213V16.0213V16.0212V16.0211V16.021V16.021V16.0209V16.0208V16.0207V16.0207V16.0206V16.0205V16.0205V16.0204V16.0203V16.0202V16.0202V16.0201V16.02V16.0199V16.0199V16.0198V16.0197V16.0196V16.0196V16.0195V16.0194V16.0193V16.0193V16.0192V16.0191V16.0191V16.019V16.0189V16.0188V16.0188V16.0187V16.0186V16.0185V16.0185V16.0184V16.0183V16.0182V16.0182V16.0181V16.018V16.0179V16.0179V16.0178V16.0177V16.0176V16.0176V16.0175V16.0174V16.0174V16.0173V16.0172V16.0171V16.0171V16.017V16.0169V16.0168V16.0168V16.0167V16.0166V16.0165V16.0165V16.0164V16.0163V16.0162V16.0162V16.0161V16.016V16.0159V16.0159V16.0158V16.0157V16.0156V16.0156V16.0155V16.0154V16.0153V16.0153V16.0152V16.0151V16.015V16.015V16.0149V16.0148V16.0147V16.0147V16.0146V16.0145V16.0144V16.0144V16.0143V16.0142V16.0141V16.0141V16.014V16.0139V16.0138V16.0137V16.0137V16.0136V16.0135V16.0134V16.0134V16.0133V16.0132V16.0131V16.0131V16.013V16.0129V16.0128V16.0128V16.0127V16.0126V16.0125V16.0125V16.0124V16.0123V16.0122V16.0121V16.0121V16.012V16.0119V16.0118V16.0118V16.0117V16.0116V16.0115V16.0114V16.0114V16.0113V16.0112V16.0111V16.0111V16.011V16.0109V16.0108V16.0107V16.0107V16.0106V16.0105V16.0104V16.0104V16.0103V16.0102V16.0101V16.01V16.01V16.0099V16.0098V16.0097V16.0097V16.0096V16.0095V16.0094V16.0093V16.0093V16.0092V16.0091V16.009V16.0089V16.0089V16.0088V16.0087V16.0086V16.0085V16.0085V16.0084V16.0083V16.0082V16.0081V16.0081V16.008V16.0079V16.0078V16.0077V16.0077V16.0076V16.0075V16.0074V16.0073V16.0073V16.0072V16.0071V16.007V16.0069V16.0069V16.0068V16.0067V16.0066V16.0065V16.0065V16.0064V16.0063V16.0062V16.0061V16.006V16.006V16.0059V16.0058V16.0057V16.0056V16.0056V16.0055V16.0054V16.0053V16.0052V16.0051V16.0051V16.005V16.0049V16.0048V16.0047V16.0046V16.0046V16.0045V16.0044V16.0043V16.0042ZM8.4925 2.0975C9.93322 2.0975 11.0852 3.08965 11.1767 4.30827H5.80826C5.89979 3.08965 7.05178 2.0975 8.4925 2.0975ZM3.60481 17.2895C3.11012 17.2895 2.66693 17.1436 2.34958 16.9141C2.03479 16.6866 1.85223 16.3846 1.84414 16.0636L2.9078 5.463H4.53694V6.81233C4.53694 7.14688 4.83903 7.3897 5.16968 7.3897C5.50033 7.3897 5.80241 7.14688 5.80241 6.81233V5.463H11.1826V6.81233C11.1826 7.14688 11.4847 7.3897 11.8153 7.3897C12.146 7.3897 12.4481 7.14688 12.4481 6.81233V5.463H14.0772L15.1409 16.0672C15.1328 16.3861 14.9504 16.6873 14.6355 16.9145C14.3181 17.1435 13.8749 17.2895 13.3802 17.2895H3.60481Z" fill="black" stroke="black" stroke-width="0.3"/>
</svg>
