<svg width="8" height="10" viewBox="0 0 8 10" fill="none" xmlns="http://www.w3.org/2000/svg">
<path d="M0.189782 4.57537L6.00477 0.13352C6.23182 -0.0399529 6.60119 -0.0414838 6.82971 0.130131C7.0582 0.301716 7.05936 0.581421 6.83226 0.754894L1.42847 4.88266L6.86633 8.9657C7.09482 9.13729 7.09598 9.41699 6.86888 9.59046C6.75538 9.6772 6.60626 9.72094 6.45697 9.72156C6.30767 9.72218 6.1582 9.67968 6.04394 9.59385L0.192372 5.20013C0.0825958 5.11773 0.0206863 5.00563 0.0202008 4.88847C0.0197152 4.77131 0.0806931 4.65867 0.189782 4.57537Z" fill="black"/>
<path d="M0.189782 4.57537L6.00477 0.13352C6.23182 -0.0399529 6.60119 -0.0414838 6.82971 0.130131C7.0582 0.301716 7.05936 0.581421 6.83226 0.754894L1.42847 4.88266L6.86633 8.9657C7.09482 9.13729 7.09598 9.41699 6.86888 9.59046C6.75538 9.6772 6.60626 9.72094 6.45697 9.72156C6.30767 9.72218 6.1582 9.67968 6.04394 9.59385L0.192372 5.20013C0.0825958 5.11773 0.0206863 5.00563 0.0202008 4.88847C0.0197152 4.77131 0.0806931 4.65867 0.189782 4.57537Z" stroke="black"/>
</svg>
