<svg width="7" height="11" viewBox="0 0 7 11" fill="none" xmlns="http://www.w3.org/2000/svg">
<path d="M6.82912 5.67751L0.995777 10.0952C0.768004 10.2677 0.398636 10.2677 0.170825 10.0952C-0.056948 9.92265 -0.0569481 9.64295 0.170864 9.47042L5.59171 5.36508L0.170825 1.25954C-0.056948 1.08701 -0.0569481 0.807302 0.170864 0.634771C0.28473 0.548506 0.434025 0.505387 0.58332 0.505387C0.732615 0.505387 0.88191 0.548506 0.995815 0.6348L6.82912 5.05274C6.93856 5.13559 7 5.24795 7 5.36511C7 5.48227 6.93856 5.59466 6.82912 5.67751Z" fill="black"/>
<path d="M6.82912 5.67751L0.995777 10.0952C0.768004 10.2677 0.398636 10.2677 0.170825 10.0952C-0.056948 9.92265 -0.0569481 9.64295 0.170864 9.47042L5.59171 5.36508L0.170825 1.25954C-0.056948 1.08701 -0.0569481 0.807302 0.170864 0.634771C0.28473 0.548506 0.434025 0.505387 0.58332 0.505387C0.732615 0.505387 0.88191 0.548506 0.995815 0.6348L6.82912 5.05274C6.93856 5.13559 7 5.24795 7 5.36511C7 5.48227 6.93856 5.59466 6.82912 5.67751Z" stroke="black"/>
</svg>
