<svg width="17" height="16" viewBox="0 0 17 16" fill="none" xmlns="http://www.w3.org/2000/svg">
<g clip-path="url(#clip0_600_1768)">
<path d="M14.7249 11.5571C14.6639 11.392 14.4804 11.3075 14.315 11.3684L10.9959 12.5915C10.8305 12.6525 10.7459 12.8357 10.8069 13.0009C10.8545 13.1296 10.9765 13.2094 11.1064 13.2094C11.1431 13.2094 11.1804 13.203 11.2168 13.1896L14.536 11.9665C14.7014 11.9056 14.7859 11.7223 14.7249 11.5571Z" fill="white"/>
<path d="M14.7241 10.2583C14.663 10.0931 14.4796 10.0087 14.3142 10.0696L11.6912 11.0361C11.5258 11.0971 11.4412 11.2804 11.5022 11.4455C11.5498 11.5743 11.6718 11.654 11.8017 11.654C11.8384 11.654 11.8757 11.6476 11.9122 11.6342L14.5352 10.6676C14.7005 10.6067 14.7851 10.4234 14.7241 10.2583Z" fill="white"/>
<path d="M15.8125 3.14105L8.12107 0.306797C8.04976 0.280547 7.97141 0.280547 7.90012 0.306797L0.208682 3.14105L0.208619 3.1413C0.18343 3.15061 0.15921 3.16292 0.136681 3.17858C0.0510362 3.2382 0 3.33586 0 3.44008V12.559C0 12.6925 0.0832663 12.8118 0.208651 12.858L7.90009 15.6923C7.93595 15.7055 7.97335 15.712 8.01055 15.712C8.04813 15.712 8.08552 15.7052 8.12095 15.6921L8.12107 15.6923L15.8125 12.858C15.9379 12.8118 16.0212 12.6925 16.0212 12.559V3.44008C16.0212 3.30658 15.9379 3.18727 15.8125 3.14105ZM7.69144 14.936L0.638281 12.3369V3.89742L2.07443 4.42667V8.28848C2.07443 8.42195 2.15769 8.5413 2.28308 8.58752L5.72985 9.85767C5.76571 9.87089 5.8031 9.87736 5.84031 9.87736C5.90471 9.87736 5.96854 9.85789 6.02283 9.82011C6.10844 9.76052 6.15948 9.66286 6.15948 9.55864V5.93198L7.69138 6.49648V14.936H7.69144ZM5.52123 5.69677V9.10123L2.71274 8.0663V4.66183L5.52123 5.69677ZM3.31554 4.20195L5.84037 3.27155L8.36521 4.20195L5.84037 5.13236L3.31554 4.20195ZM8.01058 5.93461L6.7589 5.47336L9.39766 4.50095C9.52305 4.45473 9.60631 4.33542 9.60631 4.20192C9.60631 4.06842 9.52305 3.94911 9.39766 3.90289L5.95086 2.63277C5.87955 2.60652 5.80123 2.60652 5.72988 2.63277L2.39013 3.86352L1.24111 3.44008L8.01058 0.945578L14.7801 3.44011L8.01058 5.93461ZM15.3829 12.3369L8.32975 14.9359V6.49648L15.3829 3.89742V12.3369Z" fill="white"/>
</g>
<defs>
<clipPath id="clip0_600_1768">
<rect width="16.0212" height="16" fill="white"/>
</clipPath>
</defs>
</svg>
