<svg width="34" height="34" viewBox="0 0 34 34" fill="none" xmlns="http://www.w3.org/2000/svg">
<g clip-path="url(#clip0_641_3590)">
<path d="M16.7045 33.9999C25.9302 33.9999 33.4091 26.521 33.4091 17.2954C33.4091 8.0697 25.9302 0.59082 16.7045 0.59082C7.47888 0.59082 0 8.0697 0 17.2954C0 26.521 7.47888 33.9999 16.7045 33.9999Z" fill="black"/>
<path d="M18.3888 28.2772V18.2412H21.7574L22.2617 14.3302H18.3888V11.8332C18.3888 10.7008 18.7031 9.92924 20.3269 9.92924L22.3981 9.9285V6.43039C22.0398 6.38272 20.8106 6.27637 19.38 6.27637C16.3938 6.27637 14.3498 8.09895 14.3498 11.4463V14.3306H10.9727V18.2416H14.3498V28.2776L18.3888 28.2772Z" fill="white"/>
</g>
<defs>
<clipPath id="clip0_641_3590">
<rect width="33.4091" height="33.4091" fill="white" transform="translate(0 0.59082)"/>
</clipPath>
</defs>
</svg>
