<svg width="22" height="20" viewBox="0 0 22 20" fill="none" xmlns="http://www.w3.org/2000/svg">
<path d="M11.0999 19.4134V19.4133C10.7771 19.4133 10.4694 19.2886 10.2363 19.0637M11.0999 19.4134L10.4446 18.8478M11.0999 19.4134L11.1078 19.4131L11.1316 19.4125M11.0999 19.4134L11.1316 19.4125M10.2363 19.0637L10.4446 18.8478M10.2363 19.0637C10.2369 19.0643 10.2373 19.0647 10.2375 19.0648L10.4446 18.8478M10.2363 19.0637C10.1859 19.015 8.621 17.4938 2.52274 11.3739L2.48079 11.3318L2.69224 11.119M10.4446 18.8478C10.4317 18.8355 8.90442 17.3532 2.73525 11.1622L2.69224 11.119M2.69224 11.119L2.47973 11.3308L2.48023 11.3313M2.69224 11.119C2.6288 11.056 2.59769 11.0197 2.56657 10.9831M2.48023 11.3313L11.0999 19.1133L11.1241 19.1126M2.48023 11.3313C2.41178 11.2632 2.37501 11.2209 2.34195 11.1821M2.48023 11.3313L12.0107 19.0152M2.56657 10.9831C1.55915 9.89014 1 8.46873 1 6.98959C1 3.75043 3.62612 1.11499 6.85382 1.11499C8.3368 1.11499 9.7501 1.67581 10.8209 2.67198C10.8908 2.59996 10.9622 2.52984 11.0352 2.46164M2.56657 10.9831L2.33811 11.1776C2.33938 11.1791 2.34066 11.1806 2.34195 11.1821M2.56657 10.9831L2.34598 11.1865C2.34464 11.185 2.34329 11.1835 2.34195 11.1821M11.0352 2.46164C11.1082 2.52984 11.1797 2.59998 11.2495 2.672C12.3206 1.67578 13.7342 1.11499 15.2172 1.11499C18.4449 1.11499 21.071 3.75043 21.071 6.98959C21.071 8.61276 20.423 10.1228 19.2456 11.2444M11.0352 2.46164C12.1629 1.40809 13.6536 0.81499 15.2172 0.81499C18.6116 0.81499 21.371 3.58575 21.371 6.98959C21.371 8.69036 20.6929 10.2748 19.4628 11.4519M11.0352 2.46164C9.90787 1.40814 8.41741 0.81499 6.85382 0.81499C3.45943 0.81499 0.7 3.58575 0.7 6.98959C0.7 8.54284 1.28651 10.0348 2.34195 11.1821M19.2456 11.2444C19.2284 11.2646 19.2126 11.2807 19.201 11.292M19.2456 11.2444L19.4526 11.4617C19.456 11.4584 19.4594 11.4552 19.4628 11.4519M19.2456 11.2444L19.4736 11.4395C19.4699 11.4438 19.4663 11.4479 19.4628 11.4519M19.201 11.292C13.0756 17.4391 11.8392 18.7595 11.7926 18.8092L11.7913 18.8106M19.201 11.292L19.4111 11.5062C19.4115 11.5058 19.4119 11.5054 19.4124 11.505M19.201 11.292L19.4136 11.5038C19.4132 11.5042 19.4128 11.5046 19.4124 11.505M11.7913 18.8106C11.6182 18.9963 11.3754 19.1063 11.1241 19.1126M11.7913 18.8106L12.0107 19.0152M11.7913 18.8106L12.0095 19.0165L12.0105 19.0155L12.0107 19.0152M11.1241 19.1126L11.1316 19.4125M11.1241 19.1126L11.1319 19.4125L11.1316 19.4125M12.0107 19.0152C12.0554 18.9675 13.2907 17.6483 19.4124 11.505M19.4124 11.505C19.4255 11.492 19.4431 11.4741 19.4628 11.4519M3.26345 10.3685L3.26356 10.3684L3.25718 10.3615C2.39947 9.4305 1.92859 8.23322 1.92859 6.9899C1.92859 4.26286 4.13932 2.04581 6.85413 2.04581C8.28666 2.04581 9.64057 2.66703 10.5701 3.75006L10.5701 3.75008L10.8082 4.0275L11.0357 4.29257L11.2634 4.02763L11.5015 3.75052L11.5016 3.75042C12.4314 2.66735 13.7856 2.04613 15.2178 2.04613C17.9326 2.04613 20.1434 4.26317 20.1434 6.99022C20.1434 8.3618 19.5941 9.63607 18.5949 10.5818L18.5877 10.5886L18.5809 10.5959L18.5395 10.6407C12.4684 16.7333 11.1848 18.0997 11.1128 18.1771L11.1128 18.1771C11.1116 18.1784 11.1094 18.1802 11.1064 18.1816C11.1041 18.1826 11.1027 18.1828 11.1025 18.1829L11.0982 18.183C11.0969 18.1828 11.0957 18.1825 11.0947 18.182C11.0938 18.1817 11.0927 18.1811 11.0914 18.1802C11.0905 18.1796 11.0895 18.1788 11.0884 18.1778L11.0879 18.1772C11.0291 18.1201 9.46329 16.5975 3.3923 10.5049L3.34834 10.4608L3.3475 10.46C3.31177 10.4244 3.29569 10.4058 3.26887 10.3748L3.26345 10.3685Z" fill="#010002" stroke="black" stroke-width="0.6"/>
</svg>
