<svg width="16" height="15" viewBox="0 0 16 15" fill="none" xmlns="http://www.w3.org/2000/svg">
<path d="M7.42385 2.18861L8 2.87993L8.57615 2.18861C9.3126 1.30493 10.4412 0.75 11.6 0.75C13.6346 0.75 15.25 2.37709 15.25 4.49591C15.25 5.79867 14.6837 7.03666 13.5423 8.46345C12.3918 9.90158 10.7323 11.4417 8.66039 13.3615L8.65128 13.3699L8.64919 13.3718L7.99806 13.9775L7.35067 13.3799L7.34873 13.3781L7.31912 13.3505L7.31877 13.3502C5.25289 11.432 3.59866 9.89344 2.45195 8.45722C1.31432 7.03239 0.75 5.79642 0.75 4.49591C0.75 2.37709 2.36538 0.75 4.4 0.75C5.5588 0.75 6.6874 1.30493 7.42385 2.18861Z" stroke="#010002" stroke-width="1.5" stroke-miterlimit="1.74345"/>
</svg>
