<svg width="33" height="34" viewBox="0 0 33 34" fill="none" xmlns="http://www.w3.org/2000/svg">
<path d="M23.1997 12.142C23.0565 11.7732 22.8373 11.4384 22.556 11.159C22.2748 10.8797 21.9379 10.662 21.5669 10.52C21.0561 10.3319 20.5166 10.2324 19.9719 10.226C19.0661 10.185 18.7945 10.1747 16.5 10.1747C14.2055 10.1747 13.9339 10.185 13.0281 10.226C12.4829 10.2322 11.9428 10.3317 11.4314 10.52C11.0606 10.6624 10.7239 10.8804 10.4429 11.1601C10.162 11.4397 9.9431 11.7748 9.80032 12.1437C9.61113 12.6516 9.51113 13.1881 9.50469 13.7298C9.46344 14.6305 9.45313 14.9005 9.45313 17.1823C9.45313 19.464 9.46344 19.734 9.50469 20.6347C9.51093 21.177 9.61093 21.7141 9.80032 22.2225C9.94349 22.5913 10.1628 22.9261 10.444 23.2055C10.7252 23.4849 11.0622 23.7025 11.4331 23.8445C11.9439 24.0327 12.4835 24.1321 13.0281 24.1385C13.9339 24.1795 14.2055 24.1881 16.5 24.1881C18.7945 24.1881 19.0661 24.1795 19.9719 24.1368C20.517 24.1311 21.0571 24.0323 21.5686 23.8445C21.9394 23.7022 22.2761 23.4841 22.5571 23.2045C22.838 22.9248 23.0569 22.5897 23.1997 22.2208C23.3889 21.7129 23.4889 21.1764 23.4953 20.6347C23.5366 19.734 23.5452 19.464 23.5452 17.1823C23.5452 14.9005 23.5366 14.6305 23.4936 13.7298C23.4879 13.1877 23.3885 12.6506 23.1997 12.142ZM16.5 21.5714C15.627 21.5714 14.7737 21.3139 14.0479 20.8317C13.322 20.3494 12.7563 19.6639 12.4222 18.8619C12.0882 18.0599 12.0008 17.1774 12.1711 16.326C12.3414 15.4746 12.7617 14.6925 13.379 14.0787C13.9963 13.4649 14.7827 13.0469 15.6389 12.8775C16.4951 12.7081 17.3826 12.7951 18.1891 13.1273C18.9956 13.4595 19.6849 14.022 20.1699 14.7438C20.6549 15.4656 20.9138 16.3142 20.9138 17.1823C20.9138 18.3463 20.4487 19.4627 19.621 20.2858C18.7933 21.1089 17.6706 21.5714 16.5 21.5714ZM21.0873 13.646C20.8834 13.646 20.684 13.5859 20.5144 13.4732C20.3448 13.3605 20.2127 13.2004 20.1346 13.013C20.0565 12.8256 20.0361 12.6194 20.0759 12.4205C20.1157 12.2215 20.2139 12.0388 20.3581 11.8954C20.5024 11.752 20.6861 11.6543 20.8862 11.6148C21.0862 11.5752 21.2936 11.5955 21.482 11.6731C21.6704 11.7507 21.8315 11.8822 21.9448 12.0508C22.0581 12.2194 22.1186 12.4177 22.1186 12.6205C22.1186 12.8925 22.0099 13.1534 21.8166 13.3457C21.6232 13.538 21.3609 13.646 21.0873 13.646ZM19.3652 17.1823C19.3652 17.7458 19.1971 18.2966 18.8823 18.7652C18.5675 19.2337 18.12 19.5989 17.5965 19.8145C17.0729 20.0302 16.4968 20.0866 15.941 19.9767C15.3853 19.8667 14.8747 19.5954 14.474 19.1969C14.0733 18.7985 13.8005 18.2908 13.6899 17.7381C13.5793 17.1854 13.6361 16.6126 13.8529 16.0919C14.0698 15.5713 14.437 15.1263 14.9082 14.8133C15.3794 14.5002 15.9333 14.3331 16.5 14.3331C17.2599 14.3331 17.9887 14.6333 18.526 15.1676C19.0633 15.7019 19.3652 16.4266 19.3652 17.1823ZM16.5 0.774414C13.2366 0.774414 10.0465 1.73672 7.3331 3.53963C4.61969 5.34255 2.50484 7.90511 1.25599 10.9032C0.00714916 13.9014 -0.319606 17.2005 0.31705 20.3833C0.953706 23.5661 2.52518 26.4897 4.83274 28.7844C7.14031 31.079 10.0803 32.6417 13.281 33.2748C16.4817 33.9079 19.7993 33.583 22.8143 32.3411C25.8293 31.0993 28.4062 28.9962 30.2192 26.298C32.0323 23.5997 33 20.4274 33 17.1823C33 12.8306 31.2616 8.65723 28.1673 5.58016C25.0729 2.50309 20.8761 0.774414 16.5 0.774414ZM25.0422 20.7048C25.0276 21.414 24.8922 22.1156 24.6417 22.7797C24.421 23.3473 24.0835 23.8628 23.6507 24.2931C23.218 24.7234 22.6997 25.059 22.1289 25.2785C21.4616 25.5274 20.7566 25.6621 20.0441 25.6767C19.1263 25.7178 18.8341 25.728 16.5 25.728C14.1659 25.728 13.8738 25.7178 12.9559 25.6767C12.2434 25.6621 11.5384 25.5274 10.8711 25.2785C10.3003 25.059 9.78199 24.7234 9.34927 24.2931C8.91656 23.8628 8.57902 23.3473 8.35829 22.7797C8.10797 22.1161 7.97256 21.4151 7.95782 20.7065C7.91657 19.7938 7.90626 19.5033 7.90626 17.1823C7.90626 14.8612 7.91657 14.5707 7.95782 13.658C7.97201 12.9495 8.10684 12.2485 8.35657 11.5848C8.57729 11.0167 8.915 10.5008 9.34803 10.0702C9.78107 9.63962 10.2999 9.30379 10.8711 9.0843C11.5385 8.83597 12.2435 8.7019 12.9559 8.68778C13.8738 8.64676 14.1659 8.63651 16.5 8.63651C18.8341 8.63651 19.1263 8.64676 20.0441 8.68778C20.7565 8.7019 21.4615 8.83597 22.1289 9.0843C22.6998 9.30399 23.2183 9.63991 23.651 10.0705C24.0837 10.5011 24.4212 11.0169 24.6417 11.5848C24.892 12.2484 25.0274 12.9494 25.0422 13.658C25.0834 14.5707 25.0938 14.8612 25.0938 17.1823C25.0938 19.5033 25.0834 19.7921 25.0422 20.7048Z" fill="black"/>
</svg>
