<svg width="14" height="16" viewBox="0 0 14 16" fill="none" xmlns="http://www.w3.org/2000/svg">
<path d="M7.54035 14.6903C5.80736 16.4441 3.02093 16.4371 1.2976 14.6658C-0.425241 12.8956 -0.43203 10.031 1.27441 8.24975L1.27298 8.24872L7.54135 1.80614L8.32527 1.00073C9.62356 -0.333578 11.728 -0.333578 13.0263 1.00073C14.3246 2.33504 14.3246 4.49824 13.0263 5.83307L6.11651 12.8611L6.11408 12.8591C5.26254 13.703 3.90531 13.697 3.06393 12.8366C2.22254 11.9757 2.21724 10.5879 3.04218 9.71803L3.03975 9.715L3.80916 8.92913L7.65626 4.99618L8.42518 5.78308L3.80916 10.5019C3.38411 10.9359 3.38411 11.6403 3.80916 12.0747C4.23421 12.5091 4.92342 12.5091 5.34798 12.0747L12.2428 5.02663L12.2408 5.02515L12.2669 5.00212C13.1325 4.11274 13.1325 2.66994 12.2669 1.78061C11.4014 0.891274 9.99877 0.891217 9.13321 1.78061L9.11003 1.80763L9.10859 1.8066L8.32516 2.61149L2.05641 9.05413C0.758126 10.3884 0.758126 12.5516 2.05641 13.886C3.35469 15.2203 5.45964 15.2203 6.75693 13.886L12.2419 8.24872L13.0253 7.44383L13.8087 8.24872L13.0253 9.05413L7.54135 14.6914L7.54035 14.6903Z" fill="black"/>
</svg>
